Coordinates
version=1
nRows=12
nColumns=33
inDegrees=yes

Units are S.I. units (second, meters, Newtons, ...)
Angles are in degrees.

endheader
time	ground_thorax_rot_x	ground_thorax_rot_y	ground_thorax_rot_z	ground_thorax_tx	ground_thorax_ty	ground_thorax_tz	clav_prot_r	clav_elev_r	scapula_abduction_r	scapula_elevation_r	scapula_upward_rot_r	scapula_winging_r	shoulder_elv_r	plane_of_elev_r	axial_rot_r	elbow_flexion_r	pro_sup_r	wrist_flex_r	wrist_dev_r	clav_prot_l	clav_elev_l	scapula_abduction_l	scapula_elevation_l	scapula_upward_rot_l	scapula_winging_l	shoulder_elv_l	plane_of_elev_l	axial_rot_l	elbow_flexion_l	pro_sup_l	wrist_flex_l	wrist_dev_l
      5.34000000	     38.27526809	      4.93568464	     14.92302607	   -231.81345969	    853.71587807	     -6.66190876	     13.05483195	     36.46860863	     33.15788165	     45.00000000	    -45.00000000	   3155.21166492	  -2633.69981019	    149.56767275	   -106.35275624	   -347.03898359	     33.94826364	     18.46601555	      7.68164330	     11.85383463	    -45.00000000	    -34.61195677	     45.00000000	    -45.00000000	  -2418.91625944	   -644.41591727	     14.37402981	    -66.95601194	     10.15579418	     34.45832456	      9.13565127	    -22.23259154
      5.35000000	     38.37412043	      4.87925441	     14.59989390	   -233.04827587	    855.34210859	     -6.65088976	     12.91016379	     36.53760779	     33.14810155	     45.00000000	    -45.00000000	   3155.05107245	  -2633.66160645	    149.37435449	   -107.01510849	   -346.98500927	     34.52422622	     18.67759162	      7.67984948	     11.73031534	    -45.00000000	    -34.59038514	     45.00000000	    -45.00000000	  -2418.75823558	   -644.41656456	     14.45326130	    -66.55239127	     10.12146424	     34.36434789	      9.28412225	    -22.43823252
      5.36000000	     38.46514745	      4.87210497	     14.31009193	   -234.03629797	    856.81444711	     -6.61814118	     12.95074639	     36.52266585	     33.18608491	     45.00000000	    -45.00000000	   3154.96813318	  -2633.60769726	    149.32374278	   -107.16480433	   -346.88620624	     34.96729322	     18.55585347	      7.55497854	     11.83988645	    -45.00000000	    -34.65613976	     45.00000000	    -45.00000000	  -2418.67975637	   -644.34633902	     14.42959102	    -66.56395899	     10.18529237	     34.31552752	      9.25039496	    -22.41373942
      5.37000000	     38.57780001	      4.86310081	     13.98380201	   -234.78431729	    858.13494316	     -6.56744848	     12.94296386	     36.47219611	     33.20965316	     45.00000000	    -45.00000000	   3154.85793625	  -2633.63237534	    149.20317631	   -107.47747285	   -346.95871199	     35.29467274	     18.56013640	      7.50015690	     11.85190604	    -45.00000000	    -34.77706036	     45.00000000	    -45.00000000	  -2418.64820757	   -644.38827871	     14.46161410	    -66.68269558	     10.16247397	     34.31198705	      9.28650714	    -22.47770202
      5.38000000	     38.60430625	      4.92503795	     13.92192810	   -235.30183891	    859.31113210	     -6.49894436	     12.95947057	     36.50715906	     33.22356441	     45.00000000	    -45.00000000	   3154.91682005	  -2633.43866156	    149.26257575	   -107.48613690	   -346.79303579	     35.56395534	     18.54560983	      7.47744965	     11.92370555	    -45.00000000	    -34.75812490	     45.00000000	    -45.00000000	  -2418.52527345	   -644.25541866	     14.38052957	    -66.59849327	     10.21877223	     34.29074057	      9.18119199	    -22.41824343
      5.39000000	     38.68383535	      4.95273469	     13.73508005	   -235.59747467	    860.34634810	     -6.41218236	     12.96140463	     36.42353659	     33.30394823	     45.00000000	    -45.00000000	   3154.69045505	  -2633.54770263	    149.09812731	   -107.69973104	   -346.82313607	     35.79326171	     18.53673251	      7.34131162	     11.99911513	    -45.00000000	    -34.84878201	     45.00000000	    -45.00000000	  -2418.42557154	   -644.28051463	     14.41781808	    -66.66461665	     10.24133431	     34.32531753	      9.20450246	    -22.48886736
      5.40000000	     38.69815136	      5.07733495	     13.67926174	   -235.68598810	    861.25139039	     -6.30581104	     12.98698261	     36.51003667	     33.29329293	     45.00000000	    -45.00000000	   3154.86488252	  -2633.31193890	    149.24604833	   -107.68350376	   -346.67654549	     36.02353719	     18.53748659	      7.37877306	     12.02185335	    -45.00000000	    -34.88113083	     45.00000000	    -45.00000000	  -2418.39462600	   -644.14525290	     14.36405092	    -66.62201887	     10.30888066	     34.36907193	      9.05205412	    -22.40111104
      5.41000000	     38.76356676	      5.10638636	     13.49230168	   -235.58443448	    862.03686320	     -6.17928513	     12.98485929	     36.36231936	     33.41453060	     45.00000000	    -45.00000000	   3154.57391408	  -2633.46060215	    149.03829744	   -107.89047831	   -346.71762218	     36.24130473	     18.52744458	      7.21042584	     12.10651456	    -45.00000000	    -34.94819554	     45.00000000	    -45.00000000	  -2418.34467039	   -644.17795633	     14.47985189	    -66.73169391	     10.32886749	     34.49514648	      9.06748781	    -22.46847406
      5.42000000	     38.70282913	      5.29843938	     13.59208850	   -235.31203628	    862.72267744	     -6.03247121	     12.95284615	     36.53566116	     33.20492662	     45.00000000	    -45.00000000	   3154.93262021	  -2633.06384177	    149.15233972	   -107.86450816	   -346.50465757	     36.47981532	     18.54742274	      7.27016982	     12.11701749	    -45.00000000	    -35.14170444	     45.00000000	    -45.00000000	  -2418.29103598	   -644.05984931	     14.28820756	    -66.65236876	     10.45233828	     34.62428915	      8.84800066	    -22.36272673
      5.43000000	     38.77078946	      5.25425208	     13.28854876	   -234.89116915	    863.32033981	     -5.86954620	     12.82044161	     36.08932876	     33.31877233	     45.00000000	    -45.00000000	   3154.39038964	  -2633.35632844	    148.66696416	   -108.29174952	   -346.48198155	     36.69770103	     18.50373648	      6.93875668	     12.35922334	    -45.00000000	    -35.30134704	     45.00000000	    -45.00000000	  -2418.22969326	   -644.13522488	     14.53871971	    -66.86995833	     10.57820307	     34.85933647	      8.93479463	    -22.51065305
      5.44000000	     38.73137353	      5.45352620	     13.37285849	   -234.34116687	    863.85412035	     -5.69451391	     12.85775985	     36.33339644	     33.34876994	     45.00000000	    -45.00000000	   3154.70232709	  -2633.16093915	    149.01459157	   -108.21318445	   -346.38589413	     37.10136095	     18.49208341	      7.06196564	     12.25740195	    -45.00000000	    -35.18494487	     45.00000000	    -45.00000000	  -2418.32263489	   -643.98021740	     14.47462596	    -66.75395141	     10.58567872	     35.15721206	      8.70162107	    -22.37173534
      5.45000000	     38.67220920	      5.70036117	     13.45005684	   -233.68759477	    864.34037718	     -5.51513897	     12.69791302	     36.33092601	     33.17850082	     45.00000000	    -45.00000000	   3154.82118799	  -2633.01226820	    149.02398466	   -108.40224729	   -346.40939681	     37.51962085	     18.58894593	      7.01586455	     12.42726933	    -45.00000000	    -35.36213945	     45.00000000	    -45.00000000	  -2418.24171640	   -644.00482061	     14.55728164	    -66.75774956	     10.57605717	     35.49552968	      8.55115879	    -22.33208711
